<svg width="116" height="116" viewBox="0 0 116 116" fill="none" xmlns="http://www.w3.org/2000/svg">
<path d="M0 86H116V101C116 108.732 109.732 115 102 115H14C6.26801 115 0 108.732 0 101V86Z" fill="#12A91C" fill-opacity="0.9"/>
<path d="M38.2859 97.885V101.21H42.7509V103.319H38.2859V106.834H43.3209V109H35.6259V95.719H43.3209V97.885H38.2859ZM53.8702 106.473H48.5882L47.7142 109H44.9212L49.6902 95.719H52.7872L57.5562 109H54.7442L53.8702 106.473ZM53.1482 104.345L51.2292 98.797L49.3102 104.345H53.1482ZM63.9178 109.133C62.9932 109.133 62.1572 108.975 61.4098 108.658C60.6752 108.341 60.0925 107.885 59.6618 107.29C59.2312 106.695 59.0095 105.992 58.9968 105.181H61.8468C61.8848 105.726 62.0748 106.156 62.4168 106.473C62.7715 106.79 63.2528 106.948 63.8608 106.948C64.4815 106.948 64.9692 106.802 65.3238 106.511C65.6785 106.207 65.8558 105.814 65.8558 105.333C65.8558 104.94 65.7355 104.617 65.4948 104.364C65.2542 104.111 64.9502 103.914 64.5828 103.775C64.2282 103.623 63.7342 103.458 63.1008 103.281C62.2395 103.028 61.5365 102.781 60.9918 102.54C60.4598 102.287 59.9975 101.913 59.6048 101.419C59.2248 100.912 59.0348 100.241 59.0348 99.405C59.0348 98.6197 59.2312 97.9357 59.6238 97.353C60.0165 96.7703 60.5675 96.327 61.2768 96.023C61.9862 95.7063 62.7968 95.548 63.7088 95.548C65.0768 95.548 66.1852 95.8837 67.0338 96.555C67.8952 97.2137 68.3702 98.1383 68.4588 99.329H65.5328C65.5075 98.873 65.3112 98.4993 64.9438 98.208C64.5892 97.904 64.1142 97.752 63.5188 97.752C62.9995 97.752 62.5815 97.885 62.2648 98.151C61.9608 98.417 61.8088 98.8033 61.8088 99.31C61.8088 99.6647 61.9228 99.9623 62.1508 100.203C62.3915 100.431 62.6828 100.621 63.0248 100.773C63.3795 100.912 63.8735 101.077 64.5068 101.267C65.3682 101.52 66.0712 101.774 66.6158 102.027C67.1605 102.28 67.6292 102.66 68.0218 103.167C68.4145 103.674 68.6108 104.339 68.6108 105.162C68.6108 105.871 68.4272 106.53 68.0598 107.138C67.6925 107.746 67.1542 108.234 66.4448 108.601C65.7355 108.956 64.8932 109.133 63.9178 109.133ZM81.462 95.738L76.978 104.383V109H74.318V104.383L69.815 95.738H72.817L75.667 101.799L78.498 95.738H81.462Z" fill="white"/>
<rect x="2" y="2" width="112" height="112" rx="12" stroke="#12A91C" stroke-opacity="0.9" stroke-width="4"/>
</svg>
