<svg width="116" height="116" viewBox="0 0 116 116" fill="none" xmlns="http://www.w3.org/2000/svg">
<path d="M0 75L116 98.5V101C116 108.732 109.732 115 102 115H14C6.26801 115 0 108.732 0 101V75Z" fill="#340F67" fill-opacity="0.4"/>
<path d="M116 75L0 98.5V101C0 108.732 6.26801 115 14 115H102C109.732 115 116 108.732 116 101V75Z" fill="#340F67" fill-opacity="0.4"/>
<path d="M0 40L25.4843 77.5315C26.8067 79.479 28.5989 81.0617 30.6951 82.133L95 115H116H14C6.26801 115 0 108.732 0 101V40Z" fill="#340F67" fill-opacity="0.4"/>
<path d="M116 40L90.5157 77.5315C89.1933 79.479 87.4011 81.0617 85.3049 82.133L21 115H0H102C109.732 115 116 108.732 116 101V40Z" fill="#340F67" fill-opacity="0.4"/>
<path d="M21.596 97.885V101.21H26.061V103.319H21.596V106.834H26.631V109H18.936V95.719H26.631V97.885H21.596ZM36.9903 109L34.1213 104.535L31.5183 109H28.5163L32.6963 102.312L28.4593 95.738H31.5183L34.3873 100.184L36.9713 95.738H39.9733L35.8123 102.407L40.0493 109H36.9903ZM51.7447 99.842C51.7447 100.551 51.5737 101.216 51.2317 101.837C50.9024 102.458 50.3767 102.958 49.6547 103.338C48.9454 103.718 48.046 103.908 46.9567 103.908H44.7337V109H42.0737V95.738H46.9567C47.9827 95.738 48.8567 95.9153 49.5787 96.27C50.3007 96.6247 50.839 97.1123 51.1937 97.733C51.561 98.3537 51.7447 99.0567 51.7447 99.842ZM46.8427 101.761C47.5774 101.761 48.122 101.596 48.4767 101.267C48.8314 100.925 49.0087 100.45 49.0087 99.842C49.0087 98.55 48.2867 97.904 46.8427 97.904H44.7337V101.761H46.8427ZM56.2933 97.885V101.21H60.7583V103.319H56.2933V106.834H61.3283V109H53.6333V95.719H61.3283V97.885H56.2933ZM70.5856 109L67.6596 103.832H66.4056V109H63.7456V95.738H68.7236C69.7496 95.738 70.6236 95.9217 71.3456 96.289C72.0676 96.6437 72.6059 97.1313 72.9606 97.752C73.3279 98.36 73.5116 99.044 73.5116 99.804C73.5116 100.678 73.2582 101.47 72.7516 102.179C72.2449 102.876 71.4912 103.357 70.4906 103.623L73.6636 109H70.5856ZM66.4056 101.837H68.6286C69.3506 101.837 69.8889 101.666 70.2436 101.324C70.5982 100.969 70.7756 100.482 70.7756 99.861C70.7756 99.253 70.5982 98.7843 70.2436 98.455C69.8889 98.113 69.3506 97.942 68.6286 97.942H66.4056V101.837ZM84.9424 95.738V97.885H81.4084V109H78.7484V97.885H75.2144V95.738H84.9424ZM96.8203 103.395H93.2293V107.081H90.7213V103.395H87.1303V101.077H90.7213V97.391H93.2293V101.077H96.8203V103.395Z" fill="white"/>
<rect x="2" y="2" width="112" height="112" rx="12" stroke="#340F67" stroke-opacity="0.8" stroke-width="4"/>
<path d="M0 14C0 6.26801 6.26801 0 14 0H18L0 105V14Z" fill="#320F63" fill-opacity="0.2"/>
<path d="M0 14C0 6.26802 6.26801 0 14 0H32L0 62V14Z" fill="#320F63" fill-opacity="0.2"/>
<path d="M116 14C116 6.26801 109.732 0 102 0H98L116 105V14Z" fill="#320F63" fill-opacity="0.2"/>
<path d="M116 14C116 6.26802 109.732 0 102 0H84L116 62V14Z" fill="#320F63" fill-opacity="0.2"/>
</svg>
