<svg width="116" height="116" viewBox="0 0 116 116" fill="none" xmlns="http://www.w3.org/2000/svg">
<path d="M0 75L116 98.5V101C116 108.732 109.732 115 102 115H14C6.26801 115 0 108.732 0 101V75Z" fill="#C91200" fill-opacity="0.4"/>
<path d="M116 75L0 98.5V101C0 108.732 6.26801 115 14 115H102C109.732 115 116 108.732 116 101V75Z" fill="#C91200" fill-opacity="0.4"/>
<path d="M0 40L25.4843 77.5315C26.8067 79.479 28.5989 81.0617 30.6951 82.133L95 115H116H14C6.26801 115 0 108.732 0 101V40Z" fill="#C91200" fill-opacity="0.4"/>
<path d="M116 40L90.5157 77.5315C89.1933 79.479 87.4011 81.0617 85.3049 82.133L21 115H0H102C109.732 115 116 108.732 116 101V40Z" fill="#C91200" fill-opacity="0.4"/>
<path d="M27.9974 97.885V101.21H32.4624V103.319H27.9974V106.834H33.0324V109H25.3374V95.719H33.0324V97.885H27.9974ZM43.3917 109L40.5227 104.535L37.9197 109H34.9177L39.0977 102.312L34.8607 95.738H37.9197L40.7887 100.184L43.3727 95.738H46.3747L42.2137 102.407L46.4507 109H43.3917ZM58.1461 99.842C58.1461 100.551 57.9751 101.216 57.6331 101.837C57.3037 102.458 56.7781 102.958 56.0561 103.338C55.3467 103.718 54.4474 103.908 53.3581 103.908H51.1351V109H48.4751V95.738H53.3581C54.3841 95.738 55.2581 95.9153 55.9801 96.27C56.7021 96.6247 57.2404 97.1123 57.5951 97.733C57.9624 98.3537 58.1461 99.0567 58.1461 99.842ZM53.2441 101.761C53.9787 101.761 54.5234 101.596 54.8781 101.267C55.2327 100.925 55.4101 100.45 55.4101 99.842C55.4101 98.55 54.6881 97.904 53.2441 97.904H51.1351V101.761H53.2441ZM62.6946 97.885V101.21H67.1596V103.319H62.6946V106.834H67.7296V109H60.0346V95.719H67.7296V97.885H62.6946ZM76.9869 109L74.0609 103.832H72.8069V109H70.1469V95.738H75.1249C76.1509 95.738 77.0249 95.9217 77.7469 96.289C78.4689 96.6437 79.0073 97.1313 79.3619 97.752C79.7293 98.36 79.9129 99.044 79.9129 99.804C79.9129 100.678 79.6596 101.47 79.1529 102.179C78.6463 102.876 77.8926 103.357 76.8919 103.623L80.0649 109H76.9869ZM72.8069 101.837H75.0299C75.7519 101.837 76.2903 101.666 76.6449 101.324C76.9996 100.969 77.1769 100.482 77.1769 99.861C77.1769 99.253 76.9996 98.7843 76.6449 98.455C76.2903 98.113 75.7519 97.942 75.0299 97.942H72.8069V101.837ZM91.3438 95.738V97.885H87.8098V109H85.1498V97.885H81.6158V95.738H91.3438Z" fill="white"/>
<rect x="2" y="2" width="112" height="112" rx="12" stroke="#C91200" stroke-opacity="0.8" stroke-width="4"/>
</svg>
