<svg width="116" height="116" viewBox="0 0 116 116" fill="none" xmlns="http://www.w3.org/2000/svg">
<path d="M0 75L116 98.5V101C116 108.732 109.732 115 102 115H14C6.26801 115 0 108.732 0 101V75Z" fill="#EF6317" fill-opacity="0.6"/>
<path d="M116 75L0 98.5V101C0 108.732 6.26801 115 14 115H102C109.732 115 116 108.732 116 101V75Z" fill="#EF6317" fill-opacity="0.6"/>
<path d="M43.8066 95.738V109H41.1466V103.357H35.4656V109H32.8056V95.738H35.4656V101.191H41.1466V95.738H43.8066ZM54.5568 106.473H49.2748L48.4008 109H45.6078L50.3768 95.719H53.4738L58.2428 109H55.4308L54.5568 106.473ZM53.8348 104.345L51.9158 98.797L49.9968 104.345H53.8348ZM66.8654 109L63.9394 103.832H62.6854V109H60.0254V95.738H65.0034C66.0294 95.738 66.9034 95.9217 67.6254 96.289C68.3474 96.6437 68.8857 97.1313 69.2404 97.752C69.6077 98.36 69.7914 99.044 69.7914 99.804C69.7914 100.678 69.538 101.47 69.0314 102.179C68.5247 102.876 67.771 103.357 66.7704 103.623L69.9434 109H66.8654ZM62.6854 101.837H64.9084C65.6304 101.837 66.1687 101.666 66.5234 101.324C66.878 100.969 67.0554 100.482 67.0554 99.861C67.0554 99.253 66.878 98.7843 66.5234 98.455C66.1687 98.113 65.6304 97.942 64.9084 97.942H62.6854V101.837ZM76.8332 95.738C78.2266 95.738 79.4489 96.0103 80.5002 96.555C81.5642 97.0997 82.3812 97.8787 82.9512 98.892C83.5339 99.8927 83.8252 101.058 83.8252 102.388C83.8252 103.718 83.5339 104.883 82.9512 105.884C82.3812 106.872 81.5642 107.638 80.5002 108.183C79.4489 108.728 78.2266 109 76.8332 109H72.1972V95.738H76.8332ZM76.7382 106.739C78.1316 106.739 79.2082 106.359 79.9682 105.599C80.7282 104.839 81.1082 103.769 81.1082 102.388C81.1082 101.007 80.7282 99.9307 79.9682 99.158C79.2082 98.3727 78.1316 97.98 76.7382 97.98H74.8572V106.739H76.7382Z" fill="white"/>
<rect x="2" y="2" width="112" height="112" rx="12" stroke="#EF6317" stroke-opacity="0.8" stroke-width="4"/>
</svg>
