<svg width="116" height="116" viewBox="0 0 116 116" fill="none" xmlns="http://www.w3.org/2000/svg">
<path d="M116 81.5L0 96.5V101C0 108.732 6.26801 115 14 115H102C109.732 115 116 108.732 116 101V81.5Z" fill="#1C49BB" fill-opacity="0.8"/>
<path d="M0 81.5L116 96.5V101C116 108.732 109.732 115 102 115H14C6.26801 115 0 108.732 0 101V81.5Z" fill="#1C49BB" fill-opacity="0.8"/>
<path d="M30.4182 109H27.7582L21.7352 99.899V109H19.0752V95.719H21.7352L27.7582 104.839V95.719H30.4182V109ZM39.2028 109.133C37.9615 109.133 36.8215 108.842 35.7828 108.259C34.7442 107.676 33.9208 106.872 33.3128 105.846C32.7048 104.807 32.4008 103.636 32.4008 102.331C32.4008 101.039 32.7048 99.88 33.3128 98.854C33.9208 97.8153 34.7442 97.0047 35.7828 96.422C36.8215 95.8393 37.9615 95.548 39.2028 95.548C40.4568 95.548 41.5968 95.8393 42.6228 96.422C43.6615 97.0047 44.4785 97.8153 45.0738 98.854C45.6818 99.88 45.9858 101.039 45.9858 102.331C45.9858 103.636 45.6818 104.807 45.0738 105.846C44.4785 106.872 43.6615 107.676 42.6228 108.259C41.5842 108.842 40.4442 109.133 39.2028 109.133ZM39.2028 106.758C40.0008 106.758 40.7038 106.581 41.3118 106.226C41.9198 105.859 42.3948 105.339 42.7368 104.668C43.0788 103.997 43.2498 103.218 43.2498 102.331C43.2498 101.444 43.0788 100.672 42.7368 100.013C42.3948 99.3417 41.9198 98.8287 41.3118 98.474C40.7038 98.1193 40.0008 97.942 39.2028 97.942C38.4048 97.942 37.6955 98.1193 37.0748 98.474C36.4668 98.8287 35.9918 99.3417 35.6498 100.013C35.3078 100.672 35.1368 101.444 35.1368 102.331C35.1368 103.218 35.3078 103.997 35.6498 104.668C35.9918 105.339 36.4668 105.859 37.0748 106.226C37.6955 106.581 38.4048 106.758 39.2028 106.758ZM54.8048 109L51.8788 103.832H50.6248V109H47.9648V95.738H52.9428C53.9688 95.738 54.8428 95.9217 55.5648 96.289C56.2868 96.6437 56.8251 97.1313 57.1798 97.752C57.5471 98.36 57.7308 99.044 57.7308 99.804C57.7308 100.678 57.4775 101.47 56.9708 102.179C56.4641 102.876 55.7105 103.357 54.7098 103.623L57.8828 109H54.8048ZM50.6248 101.837H52.8478C53.5698 101.837 54.1081 101.666 54.4628 101.324C54.8175 100.969 54.9948 100.482 54.9948 99.861C54.9948 99.253 54.8175 98.7843 54.4628 98.455C54.1081 98.113 53.5698 97.942 52.8478 97.942H50.6248V101.837ZM74.5957 95.738V109H71.9357V100.374L68.3827 109H66.3687L62.7967 100.374V109H60.1367V95.738H63.1577L67.3757 105.599L71.5937 95.738H74.5957ZM85.3576 106.473H80.0756L79.2016 109H76.4086L81.1776 95.719H84.2746L89.0436 109H86.2316L85.3576 106.473ZM84.6356 104.345L82.7166 98.797L80.7976 104.345H84.6356ZM93.4861 106.891H97.8561V109H90.8261V95.738H93.4861V106.891Z" fill="white"/>
<rect x="2" y="2" width="112" height="112" rx="12" stroke="#1C49BB" stroke-opacity="0.9" stroke-width="4"/>
</svg>
