<svg width="116" height="116" viewBox="0 0 116 116" fill="none" xmlns="http://www.w3.org/2000/svg">
<path d="M0 86H116V101C116 108.732 109.732 115 102 115H14C6.26801 115 0 108.732 0 101V86Z" fill="#18C424" fill-opacity="0.9"/>
<path d="M38.2859 97.885V101.21H42.7509V103.319H38.2859V106.834H43.3209V109H35.6259V95.719H43.3209V97.885H38.2859ZM53.8702 106.473H48.5882L47.7142 109H44.9212L49.6902 95.719H52.7872L57.5562 109H54.7442L53.8702 106.473ZM53.1482 104.345L51.2292 98.797L49.3102 104.345H53.1482ZM63.9178 109.133C62.9932 109.133 62.1572 108.975 61.4098 108.658C60.6752 108.341 60.0925 107.885 59.6618 107.29C59.2312 106.695 59.0095 105.992 58.9968 105.181H61.8468C61.8848 105.726 62.0748 106.156 62.4168 106.473C62.7715 106.79 63.2528 106.948 63.8608 106.948C64.4815 106.948 64.9692 106.802 65.3238 106.511C65.6785 106.207 65.8558 105.814 65.8558 105.333C65.8558 104.94 65.7355 104.617 65.4948 104.364C65.2542 104.111 64.9502 103.914 64.5828 103.775C64.2282 103.623 63.7342 103.458 63.1008 103.281C62.2395 103.028 61.5365 102.781 60.9918 102.54C60.4598 102.287 59.9975 101.913 59.6048 101.419C59.2248 100.912 59.0348 100.241 59.0348 99.405C59.0348 98.6197 59.2312 97.9357 59.6238 97.353C60.0165 96.7703 60.5675 96.327 61.2768 96.023C61.9862 95.7063 62.7968 95.548 63.7088 95.548C65.0768 95.548 66.1852 95.8837 67.0338 96.555C67.8952 97.2137 68.3702 98.1383 68.4588 99.329H65.5328C65.5075 98.873 65.3112 98.4993 64.9438 98.208C64.5892 97.904 64.1142 97.752 63.5188 97.752C62.9995 97.752 62.5815 97.885 62.2648 98.151C61.9608 98.417 61.8088 98.8033 61.8088 99.31C61.8088 99.6647 61.9228 99.9623 62.1508 100.203C62.3915 100.431 62.6828 100.621 63.0248 100.773C63.3795 100.912 63.8735 101.077 64.5068 101.267C65.3682 101.52 66.0712 101.774 66.6158 102.027C67.1605 102.28 67.6292 102.66 68.0218 103.167C68.4145 103.674 68.6108 104.339 68.6108 105.162C68.6108 105.871 68.4272 106.53 68.0598 107.138C67.6925 107.746 67.1542 108.234 66.4448 108.601C65.7355 108.956 64.8932 109.133 63.9178 109.133ZM81.462 95.738L76.978 104.383V109H74.318V104.383L69.815 95.738H72.817L75.667 101.799L78.498 95.738H81.462Z" fill="white"/>
<rect x="2" y="2" width="112" height="112" rx="12" stroke="#18C424" stroke-opacity="0.9" stroke-width="4"/>
<path d="M0 29H116V14C116 6.26801 109.732 0 102 0H14C6.26801 0 0 6.26801 0 14V29Z" fill="#18C424" fill-opacity="0.9"/>
<path d="M17.0965 8.738V22H14.4365V8.738H17.0965ZM31.0676 22H28.4076L22.3846 12.899V22H19.7246V8.719H22.3846L28.4076 17.839V8.719H31.0676V22ZM45.6093 8.738L40.7453 22H37.5153L32.6513 8.738H35.5013L39.1493 19.283L42.7783 8.738H45.6093ZM49.8641 10.885V14.21H54.3291V16.319H49.8641V19.834H54.8991V22H47.2041V8.719H54.8991V10.885H49.8641ZM64.1564 22L61.2304 16.832H59.9764V22H57.3164V8.738H62.2944C63.3204 8.738 64.1944 8.92167 64.9164 9.289C65.6384 9.64367 66.1767 10.1313 66.5314 10.752C66.8987 11.36 67.0824 12.044 67.0824 12.804C67.0824 13.678 66.829 14.4697 66.3224 15.179C65.8157 15.8757 65.062 16.357 64.0614 16.623L67.2344 22H64.1564ZM59.9764 14.837H62.1994C62.9214 14.837 63.4597 14.666 63.8144 14.324C64.169 13.9693 64.3464 13.4817 64.3464 12.861C64.3464 12.253 64.169 11.7843 63.8144 11.455C63.4597 11.113 62.9214 10.942 62.1994 10.942H59.9764V14.837ZM78.5132 8.738V10.885H74.9792V22H72.3192V10.885H68.7852V8.738H78.5132ZM83.1141 10.885V14.21H87.5791V16.319H83.1141V19.834H88.1491V22H80.4541V8.719H88.1491V10.885H83.1141ZM95.2024 8.738C96.5957 8.738 97.818 9.01033 98.8694 9.555C99.9334 10.0997 100.75 10.8787 101.32 11.892C101.903 12.8927 102.194 14.058 102.194 15.388C102.194 16.718 101.903 17.8833 101.32 18.884C100.75 19.872 99.9334 20.6383 98.8694 21.183C97.818 21.7277 96.5957 22 95.2024 22H90.5664V8.738H95.2024ZM95.1074 19.739C96.5007 19.739 97.5774 19.359 98.3374 18.599C99.0974 17.839 99.4774 16.7687 99.4774 15.388C99.4774 14.0073 99.0974 12.9307 98.3374 12.158C97.5774 11.3727 96.5007 10.98 95.1074 10.98H93.2264V19.739H95.1074Z" fill="white"/>
</svg>
