<svg width="116" height="116" viewBox="0 0 116 116" fill="none" xmlns="http://www.w3.org/2000/svg">
<path d="M0 75L116 98.5V101C116 108.732 109.732 115 102 115H14C6.26801 115 0 108.732 0 101V75Z" fill="#E91500" fill-opacity="0.4"/>
<path d="M116 75L0 98.5V101C0 108.732 6.26801 115 14 115H102C109.732 115 116 108.732 116 101V75Z" fill="#E91500" fill-opacity="0.4"/>
<path d="M0 40L25.4843 77.5315C26.8067 79.479 28.5989 81.0617 30.6951 82.133L95 115H116H14C6.26801 115 0 108.732 0 101V40Z" fill="#E91500" fill-opacity="0.4"/>
<path d="M116 40L90.5157 77.5315C89.1933 79.479 87.4011 81.0617 85.3049 82.133L21 115H0H102C109.732 115 116 108.732 116 101V40Z" fill="#E91500" fill-opacity="0.4"/>
<path d="M27.9974 97.885V101.21H32.4624V103.319H27.9974V106.834H33.0324V109H25.3374V95.719H33.0324V97.885H27.9974ZM43.3917 109L40.5227 104.535L37.9197 109H34.9177L39.0977 102.312L34.8607 95.738H37.9197L40.7887 100.184L43.3727 95.738H46.3747L42.2137 102.407L46.4507 109H43.3917ZM58.1461 99.842C58.1461 100.551 57.9751 101.216 57.6331 101.837C57.3037 102.458 56.7781 102.958 56.0561 103.338C55.3467 103.718 54.4474 103.908 53.3581 103.908H51.1351V109H48.4751V95.738H53.3581C54.3841 95.738 55.2581 95.9153 55.9801 96.27C56.7021 96.6247 57.2404 97.1123 57.5951 97.733C57.9624 98.3537 58.1461 99.0567 58.1461 99.842ZM53.2441 101.761C53.9787 101.761 54.5234 101.596 54.8781 101.267C55.2327 100.925 55.4101 100.45 55.4101 99.842C55.4101 98.55 54.6881 97.904 53.2441 97.904H51.1351V101.761H53.2441ZM62.6946 97.885V101.21H67.1596V103.319H62.6946V106.834H67.7296V109H60.0346V95.719H67.7296V97.885H62.6946ZM76.9869 109L74.0609 103.832H72.8069V109H70.1469V95.738H75.1249C76.1509 95.738 77.0249 95.9217 77.7469 96.289C78.4689 96.6437 79.0073 97.1313 79.3619 97.752C79.7293 98.36 79.9129 99.044 79.9129 99.804C79.9129 100.678 79.6596 101.47 79.1529 102.179C78.6463 102.876 77.8926 103.357 76.8919 103.623L80.0649 109H76.9869ZM72.8069 101.837H75.0299C75.7519 101.837 76.2903 101.666 76.6449 101.324C76.9996 100.969 77.1769 100.482 77.1769 99.861C77.1769 99.253 76.9996 98.7843 76.6449 98.455C76.2903 98.113 75.7519 97.942 75.0299 97.942H72.8069V101.837ZM91.3438 95.738V97.885H87.8098V109H85.1498V97.885H81.6158V95.738H91.3438Z" fill="white"/>
<rect x="2" y="2" width="112" height="112" rx="12" stroke="#E91500" stroke-opacity="0.8" stroke-width="4"/>
<path d="M0 40L116 16.5V14C116 6.26801 109.732 0 102 0H14C6.26801 0 0 6.26801 0 14V40Z" fill="#E91500" fill-opacity="0.4"/>
<path d="M116 40L0 16.5V14C0 6.26801 6.26801 0 14 0H102C109.732 0 116 6.26801 116 14V40Z" fill="#E91500" fill-opacity="0.4"/>
<path d="M0 75L25.4843 37.4685C26.8067 35.521 28.5989 33.9383 30.6951 32.867L95 0H116H14C6.26801 0 0 6.26801 0 14V75Z" fill="#E91500" fill-opacity="0.4"/>
<path d="M116 75L90.5157 37.4685C89.1933 35.521 87.4011 33.9383 85.3049 32.867L21 0H0H102C109.732 0 116 6.26801 116 14V75Z" fill="#E91500" fill-opacity="0.4"/>
<path d="M17.0965 7.738V21H14.4365V7.738H17.0965ZM31.0676 21H28.4076L22.3846 11.899V21H19.7246V7.719H22.3846L28.4076 16.839V7.719H31.0676V21ZM45.6093 7.738L40.7453 21H37.5153L32.6513 7.738H35.5013L39.1493 18.283L42.7783 7.738H45.6093ZM49.8641 9.885V13.21H54.3291V15.319H49.8641V18.834H54.8991V21H47.2041V7.719H54.8991V9.885H49.8641ZM64.1564 21L61.2304 15.832H59.9764V21H57.3164V7.738H62.2944C63.3204 7.738 64.1944 7.92167 64.9164 8.289C65.6384 8.64367 66.1767 9.13133 66.5314 9.752C66.8987 10.36 67.0824 11.044 67.0824 11.804C67.0824 12.678 66.829 13.4697 66.3224 14.179C65.8157 14.8757 65.062 15.357 64.0614 15.623L67.2344 21H64.1564ZM59.9764 13.837H62.1994C62.9214 13.837 63.4597 13.666 63.8144 13.324C64.169 12.9693 64.3464 12.4817 64.3464 11.861C64.3464 11.253 64.169 10.7843 63.8144 10.455C63.4597 10.113 62.9214 9.942 62.1994 9.942H59.9764V13.837ZM78.5132 7.738V9.885H74.9792V21H72.3192V9.885H68.7852V7.738H78.5132ZM83.1141 9.885V13.21H87.5791V15.319H83.1141V18.834H88.1491V21H80.4541V7.719H88.1491V9.885H83.1141ZM95.2024 7.738C96.5957 7.738 97.818 8.01033 98.8694 8.555C99.9334 9.09967 100.75 9.87867 101.32 10.892C101.903 11.8927 102.194 13.058 102.194 14.388C102.194 15.718 101.903 16.8833 101.32 17.884C100.75 18.872 99.9334 19.6383 98.8694 20.183C97.818 20.7277 96.5957 21 95.2024 21H90.5664V7.738H95.2024ZM95.1074 18.739C96.5007 18.739 97.5774 18.359 98.3374 17.599C99.0974 16.839 99.4774 15.7687 99.4774 14.388C99.4774 13.0073 99.0974 11.9307 98.3374 11.158C97.5774 10.3727 96.5007 9.98 95.1074 9.98H93.2264V18.739H95.1074Z" fill="white"/>
</svg>
