<svg width="116" height="116" viewBox="0 0 116 116" fill="none" xmlns="http://www.w3.org/2000/svg">
<path d="M0 75L116 98.5V101C116 108.732 109.732 115 102 115H14C6.26801 115 0 108.732 0 101V75Z" fill="#5214A9" fill-opacity="0.4"/>
<path d="M116 75L0 98.5V101C0 108.732 6.26801 115 14 115H102C109.732 115 116 108.732 116 101V75Z" fill="#5214A9" fill-opacity="0.4"/>
<path d="M0 40L25.4843 77.5315C26.8067 79.479 28.5989 81.0617 30.6951 82.133L95 115H116H14C6.26801 115 0 108.732 0 101V40Z" fill="#5214A9" fill-opacity="0.4"/>
<path d="M116 40L90.5157 77.5315C89.1933 79.479 87.4011 81.0617 85.3049 82.133L21 115H0H102C109.732 115 116 108.732 116 101V40Z" fill="#5214A9" fill-opacity="0.4"/>
<path d="M21.596 97.885V101.21H26.061V103.319H21.596V106.834H26.631V109H18.936V95.719H26.631V97.885H21.596ZM36.9903 109L34.1213 104.535L31.5183 109H28.5163L32.6963 102.312L28.4593 95.738H31.5183L34.3873 100.184L36.9713 95.738H39.9733L35.8123 102.407L40.0493 109H36.9903ZM51.7447 99.842C51.7447 100.551 51.5737 101.216 51.2317 101.837C50.9024 102.458 50.3767 102.958 49.6547 103.338C48.9454 103.718 48.046 103.908 46.9567 103.908H44.7337V109H42.0737V95.738H46.9567C47.9827 95.738 48.8567 95.9153 49.5787 96.27C50.3007 96.6247 50.839 97.1123 51.1937 97.733C51.561 98.3537 51.7447 99.0567 51.7447 99.842ZM46.8427 101.761C47.5774 101.761 48.122 101.596 48.4767 101.267C48.8314 100.925 49.0087 100.45 49.0087 99.842C49.0087 98.55 48.2867 97.904 46.8427 97.904H44.7337V101.761H46.8427ZM56.2933 97.885V101.21H60.7583V103.319H56.2933V106.834H61.3283V109H53.6333V95.719H61.3283V97.885H56.2933ZM70.5856 109L67.6596 103.832H66.4056V109H63.7456V95.738H68.7236C69.7496 95.738 70.6236 95.9217 71.3456 96.289C72.0676 96.6437 72.6059 97.1313 72.9606 97.752C73.3279 98.36 73.5116 99.044 73.5116 99.804C73.5116 100.678 73.2582 101.47 72.7516 102.179C72.2449 102.876 71.4912 103.357 70.4906 103.623L73.6636 109H70.5856ZM66.4056 101.837H68.6286C69.3506 101.837 69.8889 101.666 70.2436 101.324C70.5982 100.969 70.7756 100.482 70.7756 99.861C70.7756 99.253 70.5982 98.7843 70.2436 98.455C69.8889 98.113 69.3506 97.942 68.6286 97.942H66.4056V101.837ZM84.9424 95.738V97.885H81.4084V109H78.7484V97.885H75.2144V95.738H84.9424ZM96.8203 103.395H93.2293V107.081H90.7213V103.395H87.1303V101.077H90.7213V97.391H93.2293V101.077H96.8203V103.395Z" fill="white"/>
<rect x="2" y="2" width="112" height="112" rx="12" stroke="#5214A9" stroke-opacity="0.8" stroke-width="4"/>
<path d="M0 14C0 6.26801 6.26801 0 14 0H18L0 105V14Z" fill="#5214A9" fill-opacity="0.2"/>
<path d="M0 14C0 6.26802 6.26801 0 14 0H32L0 62V14Z" fill="#5214A9" fill-opacity="0.2"/>
<path d="M116 14C116 6.26801 109.732 0 102 0H98L116 105V14Z" fill="#5214A9" fill-opacity="0.2"/>
<path d="M116 14C116 6.26802 109.732 0 102 0H84L116 62V14Z" fill="#5214A9" fill-opacity="0.2"/>
<path d="M0 40L116 16.5V14C116 6.26801 109.732 0 102 0H14C6.26801 0 0 6.26801 0 14V40Z" fill="#5214A9" fill-opacity="0.4"/>
<path d="M116 40L0 16.5V14C0 6.26801 6.26801 0 14 0H102C109.732 0 116 6.26801 116 14V40Z" fill="#5214A9" fill-opacity="0.4"/>
<path d="M0 75L25.4843 37.4685C26.8067 35.521 28.5989 33.9383 30.6951 32.867L95 0H116H14C6.26801 0 0 6.26801 0 14V75Z" fill="#5214A9" fill-opacity="0.4"/>
<path d="M116 75L90.5157 37.4685C89.1933 35.521 87.4011 33.9383 85.3049 32.867L21 0H0H102C109.732 0 116 6.26801 116 14V75Z" fill="#5214A9" fill-opacity="0.4"/>
<path d="M0 101C0 108.732 6.26801 115 14 115H18L0 10V101Z" fill="#5214A9" fill-opacity="0.2"/>
<path d="M0 101C0 108.732 6.26801 115 14 115H32L0 53V101Z" fill="#5214A9" fill-opacity="0.2"/>
<path d="M116 101C116 108.732 109.732 115 102 115H98L116 10V101Z" fill="#5214A9" fill-opacity="0.2"/>
<path d="M116 101C116 108.732 109.732 115 102 115H84L116 53V101Z" fill="#5214A9" fill-opacity="0.2"/>
<path d="M17.0965 7.738V21H14.4365V7.738H17.0965ZM31.0676 21H28.4076L22.3846 11.899V21H19.7246V7.719H22.3846L28.4076 16.839V7.719H31.0676V21ZM45.6093 7.738L40.7453 21H37.5153L32.6513 7.738H35.5013L39.1493 18.283L42.7783 7.738H45.6093ZM49.8641 9.885V13.21H54.3291V15.319H49.8641V18.834H54.8991V21H47.2041V7.719H54.8991V9.885H49.8641ZM64.1564 21L61.2304 15.832H59.9764V21H57.3164V7.738H62.2944C63.3204 7.738 64.1944 7.92167 64.9164 8.289C65.6384 8.64367 66.1767 9.13133 66.5314 9.752C66.8987 10.36 67.0824 11.044 67.0824 11.804C67.0824 12.678 66.829 13.4697 66.3224 14.179C65.8157 14.8757 65.062 15.357 64.0614 15.623L67.2344 21H64.1564ZM59.9764 13.837H62.1994C62.9214 13.837 63.4597 13.666 63.8144 13.324C64.169 12.9693 64.3464 12.4817 64.3464 11.861C64.3464 11.253 64.169 10.7843 63.8144 10.455C63.4597 10.113 62.9214 9.942 62.1994 9.942H59.9764V13.837ZM78.5132 7.738V9.885H74.9792V21H72.3192V9.885H68.7852V7.738H78.5132ZM83.1141 9.885V13.21H87.5791V15.319H83.1141V18.834H88.1491V21H80.4541V7.719H88.1491V9.885H83.1141ZM95.2024 7.738C96.5957 7.738 97.818 8.01033 98.8694 8.555C99.9334 9.09967 100.75 9.87867 101.32 10.892C101.903 11.8927 102.194 13.058 102.194 14.388C102.194 15.718 101.903 16.8833 101.32 17.884C100.75 18.872 99.9334 19.6383 98.8694 20.183C97.818 20.7277 96.5957 21 95.2024 21H90.5664V7.738H95.2024ZM95.1074 18.739C96.5007 18.739 97.5774 18.359 98.3374 17.599C99.0974 16.839 99.4774 15.7687 99.4774 14.388C99.4774 13.0073 99.0974 11.9307 98.3374 11.158C97.5774 10.3727 96.5007 9.98 95.1074 9.98H93.2264V18.739H95.1074Z" fill="white"/>
</svg>
