<svg width="116" height="116" viewBox="0 0 116 116" fill="none" xmlns="http://www.w3.org/2000/svg">
<path d="M0 75L116 98.5V101C116 108.732 109.732 115 102 115H14C6.26801 115 0 108.732 0 101V75Z" fill="#FF6C1C" fill-opacity="0.6"/>
<path d="M116 75L0 98.5V101C0 108.732 6.26801 115 14 115H102C109.732 115 116 108.732 116 101V75Z" fill="#FF6C1C" fill-opacity="0.6"/>
<path d="M43.8066 95.738V109H41.1466V103.357H35.4656V109H32.8056V95.738H35.4656V101.191H41.1466V95.738H43.8066ZM54.5568 106.473H49.2748L48.4008 109H45.6078L50.3768 95.719H53.4738L58.2428 109H55.4308L54.5568 106.473ZM53.8348 104.345L51.9158 98.797L49.9968 104.345H53.8348ZM66.8654 109L63.9394 103.832H62.6854V109H60.0254V95.738H65.0034C66.0294 95.738 66.9034 95.9217 67.6254 96.289C68.3474 96.6437 68.8857 97.1313 69.2404 97.752C69.6077 98.36 69.7914 99.044 69.7914 99.804C69.7914 100.678 69.538 101.47 69.0314 102.179C68.5247 102.876 67.771 103.357 66.7704 103.623L69.9434 109H66.8654ZM62.6854 101.837H64.9084C65.6304 101.837 66.1687 101.666 66.5234 101.324C66.878 100.969 67.0554 100.482 67.0554 99.861C67.0554 99.253 66.878 98.7843 66.5234 98.455C66.1687 98.113 65.6304 97.942 64.9084 97.942H62.6854V101.837ZM76.8332 95.738C78.2266 95.738 79.4489 96.0103 80.5002 96.555C81.5642 97.0997 82.3812 97.8787 82.9512 98.892C83.5339 99.8927 83.8252 101.058 83.8252 102.388C83.8252 103.718 83.5339 104.883 82.9512 105.884C82.3812 106.872 81.5642 107.638 80.5002 108.183C79.4489 108.728 78.2266 109 76.8332 109H72.1972V95.738H76.8332ZM76.7382 106.739C78.1316 106.739 79.2082 106.359 79.9682 105.599C80.7282 104.839 81.1082 103.769 81.1082 102.388C81.1082 101.007 80.7282 99.9307 79.9682 99.158C79.2082 98.3727 78.1316 97.98 76.7382 97.98H74.8572V106.739H76.7382Z" fill="white"/>
<rect x="2" y="2" width="112" height="112" rx="12" stroke="#EF6317" stroke-opacity="0.8" stroke-width="4"/>
<path d="M0 40L116 16.5V14C116 6.26801 109.732 0 102 0H14C6.26801 0 0 6.26801 0 14V40Z" fill="#FF6C1C" fill-opacity="0.6"/>
<path d="M116 40L0 16.5V14C0 6.26801 6.26801 0 14 0H102C109.732 0 116 6.26801 116 14V40Z" fill="#FF6C1C" fill-opacity="0.6"/>
<path d="M17.0965 7.738V21H14.4365V7.738H17.0965ZM31.0676 21H28.4076L22.3846 11.899V21H19.7246V7.719H22.3846L28.4076 16.839V7.719H31.0676V21ZM45.6093 7.738L40.7453 21H37.5153L32.6513 7.738H35.5013L39.1493 18.283L42.7783 7.738H45.6093ZM49.8641 9.885V13.21H54.3291V15.319H49.8641V18.834H54.8991V21H47.2041V7.719H54.8991V9.885H49.8641ZM64.1564 21L61.2304 15.832H59.9764V21H57.3164V7.738H62.2944C63.3204 7.738 64.1944 7.92167 64.9164 8.289C65.6384 8.64367 66.1767 9.13133 66.5314 9.752C66.8987 10.36 67.0824 11.044 67.0824 11.804C67.0824 12.678 66.829 13.4697 66.3224 14.179C65.8157 14.8757 65.062 15.357 64.0614 15.623L67.2344 21H64.1564ZM59.9764 13.837H62.1994C62.9214 13.837 63.4597 13.666 63.8144 13.324C64.169 12.9693 64.3464 12.4817 64.3464 11.861C64.3464 11.253 64.169 10.7843 63.8144 10.455C63.4597 10.113 62.9214 9.942 62.1994 9.942H59.9764V13.837ZM78.5132 7.738V9.885H74.9792V21H72.3192V9.885H68.7852V7.738H78.5132ZM83.1141 9.885V13.21H87.5791V15.319H83.1141V18.834H88.1491V21H80.4541V7.719H88.1491V9.885H83.1141ZM95.2024 7.738C96.5957 7.738 97.818 8.01033 98.8694 8.555C99.9334 9.09967 100.75 9.87867 101.32 10.892C101.903 11.8927 102.194 13.058 102.194 14.388C102.194 15.718 101.903 16.8833 101.32 17.884C100.75 18.872 99.9334 19.6383 98.8694 20.183C97.818 20.7277 96.5957 21 95.2024 21H90.5664V7.738H95.2024ZM95.1074 18.739C96.5007 18.739 97.5774 18.359 98.3374 17.599C99.0974 16.839 99.4774 15.7687 99.4774 14.388C99.4774 13.0073 99.0974 11.9307 98.3374 11.158C97.5774 10.3727 96.5007 9.98 95.1074 9.98H93.2264V18.739H95.1074Z" fill="white"/>
</svg>
