<svg width="116" height="117" viewBox="0 0 116 117" fill="none" xmlns="http://www.w3.org/2000/svg">
<path d="M116 82.5L0 97.5V102C0 109.732 6.26801 116 14 116H102C109.732 116 116 109.732 116 102V82.5Z" fill="#2257DE" fill-opacity="0.8"/>
<path d="M0 82.5L116 97.5V102C116 109.732 109.732 116 102 116H14C6.26801 116 0 109.732 0 102V82.5Z" fill="#2257DE" fill-opacity="0.8"/>
<path d="M30.4182 110H27.7582L21.7352 100.899V110H19.0752V96.719H21.7352L27.7582 105.839V96.719H30.4182V110ZM39.2028 110.133C37.9615 110.133 36.8215 109.842 35.7828 109.259C34.7442 108.676 33.9208 107.872 33.3128 106.846C32.7048 105.807 32.4008 104.636 32.4008 103.331C32.4008 102.039 32.7048 100.88 33.3128 99.854C33.9208 98.8153 34.7442 98.0047 35.7828 97.422C36.8215 96.8393 37.9615 96.548 39.2028 96.548C40.4568 96.548 41.5968 96.8393 42.6228 97.422C43.6615 98.0047 44.4785 98.8153 45.0738 99.854C45.6818 100.88 45.9858 102.039 45.9858 103.331C45.9858 104.636 45.6818 105.807 45.0738 106.846C44.4785 107.872 43.6615 108.676 42.6228 109.259C41.5842 109.842 40.4442 110.133 39.2028 110.133ZM39.2028 107.758C40.0008 107.758 40.7038 107.581 41.3118 107.226C41.9198 106.859 42.3948 106.339 42.7368 105.668C43.0788 104.997 43.2498 104.218 43.2498 103.331C43.2498 102.444 43.0788 101.672 42.7368 101.013C42.3948 100.342 41.9198 99.8287 41.3118 99.474C40.7038 99.1193 40.0008 98.942 39.2028 98.942C38.4048 98.942 37.6955 99.1193 37.0748 99.474C36.4668 99.8287 35.9918 100.342 35.6498 101.013C35.3078 101.672 35.1368 102.444 35.1368 103.331C35.1368 104.218 35.3078 104.997 35.6498 105.668C35.9918 106.339 36.4668 106.859 37.0748 107.226C37.6955 107.581 38.4048 107.758 39.2028 107.758ZM54.8048 110L51.8788 104.832H50.6248V110H47.9648V96.738H52.9428C53.9688 96.738 54.8428 96.9217 55.5648 97.289C56.2868 97.6437 56.8251 98.1313 57.1798 98.752C57.5471 99.36 57.7308 100.044 57.7308 100.804C57.7308 101.678 57.4775 102.47 56.9708 103.179C56.4641 103.876 55.7105 104.357 54.7098 104.623L57.8828 110H54.8048ZM50.6248 102.837H52.8478C53.5698 102.837 54.1081 102.666 54.4628 102.324C54.8175 101.969 54.9948 101.482 54.9948 100.861C54.9948 100.253 54.8175 99.7843 54.4628 99.455C54.1081 99.113 53.5698 98.942 52.8478 98.942H50.6248V102.837ZM74.5957 96.738V110H71.9357V101.374L68.3827 110H66.3687L62.7967 101.374V110H60.1367V96.738H63.1577L67.3757 106.599L71.5937 96.738H74.5957ZM85.3576 107.473H80.0756L79.2016 110H76.4086L81.1776 96.719H84.2746L89.0436 110H86.2316L85.3576 107.473ZM84.6356 105.345L82.7166 99.797L80.7976 105.345H84.6356ZM93.4861 107.891H97.8561V110H90.8261V96.738H93.4861V107.891Z" fill="white"/>
<rect x="2" y="3" width="112" height="112" rx="12" stroke="#2155D6" stroke-width="4"/>
<path d="M116 33.5L0 18.5V14C0 6.26801 6.26801 0 14 0H102C109.732 0 116 6.26801 116 14V33.5Z" fill="#2257DE" fill-opacity="0.8"/>
<path d="M0 33.5L116 18.5V14C116 6.26801 109.732 0 102 0H14C6.26801 0 0 6.26801 0 14V33.5Z" fill="#2257DE" fill-opacity="0.8"/>
<path d="M17.0965 7.738V21H14.4365V7.738H17.0965ZM31.0676 21H28.4076L22.3846 11.899V21H19.7246V7.719H22.3846L28.4076 16.839V7.719H31.0676V21ZM45.6093 7.738L40.7453 21H37.5153L32.6513 7.738H35.5013L39.1493 18.283L42.7783 7.738H45.6093ZM49.8641 9.885V13.21H54.3291V15.319H49.8641V18.834H54.8991V21H47.2041V7.719H54.8991V9.885H49.8641ZM64.1564 21L61.2304 15.832H59.9764V21H57.3164V7.738H62.2944C63.3204 7.738 64.1944 7.92167 64.9164 8.289C65.6384 8.64367 66.1767 9.13133 66.5314 9.752C66.8987 10.36 67.0824 11.044 67.0824 11.804C67.0824 12.678 66.829 13.4697 66.3224 14.179C65.8157 14.8757 65.062 15.357 64.0614 15.623L67.2344 21H64.1564ZM59.9764 13.837H62.1994C62.9214 13.837 63.4597 13.666 63.8144 13.324C64.169 12.9693 64.3464 12.4817 64.3464 11.861C64.3464 11.253 64.169 10.7843 63.8144 10.455C63.4597 10.113 62.9214 9.942 62.1994 9.942H59.9764V13.837ZM78.5132 7.738V9.885H74.9792V21H72.3192V9.885H68.7852V7.738H78.5132ZM83.1141 9.885V13.21H87.5791V15.319H83.1141V18.834H88.1491V21H80.4541V7.719H88.1491V9.885H83.1141ZM95.2024 7.738C96.5957 7.738 97.818 8.01033 98.8694 8.555C99.9334 9.09967 100.75 9.87867 101.32 10.892C101.903 11.8927 102.194 13.058 102.194 14.388C102.194 15.718 101.903 16.8833 101.32 17.884C100.75 18.872 99.9334 19.6383 98.8694 20.183C97.818 20.7277 96.5957 21 95.2024 21H90.5664V7.738H95.2024ZM95.1074 18.739C96.5007 18.739 97.5774 18.359 98.3374 17.599C99.0974 16.839 99.4774 15.7687 99.4774 14.388C99.4774 13.0073 99.0974 11.9307 98.3374 11.158C97.5774 10.3727 96.5007 9.98 95.1074 9.98H93.2264V18.739H95.1074Z" fill="white"/>
</svg>
